# xmcd
#
# Track frame offsets:
#	150
#	18794
#	32904
#	50579
#	71677
#	89537
#	107570
#	122804
#	137490
#	154816
#	171874
#
# Disc length: 2553 seconds
#
# Revision: 1
# Processed by: cddbd v1.5.2PL0 Copyright (c) Steve Scherf et al.
# Submitted via: audiograbber 1.83.01
#
DISCID=9009f70b
DTITLE=Mindless Behavior - All Around The World
DYEAR=2012
DGENRE=R&B
TTITLE0=All Around The World
TTITLE1=Keep Her On The Low
TTITLE2=Used To Be
TTITLE3=I Lean ( feat. Soulja Boy )
TTITLE4=Pretty Girl ( feat. Jacob Latimore and Lil Twist )
TTITLE5=I'm Falling
TTITLE6=Ready For Love
TTITLE7=Band-Aid
TTITLE8=Forever
TTITLE9=Video
TTITLE10=Brightside
EXTD=
EXTT0=
EXTT1=
EXTT2=
EXTT3=
EXTT4=
EXTT5=
EXTT6=
EXTT7=
EXTT8=
EXTT9=
EXTT10=
PLAYORDER=
